<?xml version="1.0" encoding="utf-8"?>
<svg xmlns="http://www.w3.org/2000/svg" viewBox="592.702 256.6392 402.625 184.5816" width="402.625px" height="184.582px">
  <rect x="592.702" y="293.384" width="402.625" height="131.503" rx="20" fill="#000000"/>
  <text style="fill: rgb(0, 144, 255); font-family: Arial; font-size: 200px; white-space: pre;" transform="matrix(0.7185879945755005, 0, 0, 0.644118070602417, 567.9782104492188, 235.7716064453125)" x="46.056" y="252.333">Q</text>
  <text style="fill: rgb(244, 240, 9); font-family: Arial; font-size: 200px; white-space: pre;" transform="matrix(0.7185879945755005, 0, 0, 0.644118070602417, 559.9111938476562, 227.7832489013672)" x="198.944" y="288.865">u</text>
  <text style="fill: rgb(177, 3, 3); font-family: Arial; font-size: 200px; white-space: pre;" transform="matrix(0.7185879945755005, 0, 0, 0.644118070602417, 553.68505859375, 221.84759521484375)" x="306.426" y="279.622">i</text>
  <text style="fill: rgb(255, 255, 255); font-family: Arial; font-size: 200px; paint-order: stroke markers; white-space: pre; transform-origin: 532.75px 171.752px;" transform="matrix(0.640267014503, -0.292424052954, 0.326233118773, 0.573912978172, 299.849512458826, 164.377874559585)" x="482.746" y="240.449">z</text>
  <text style="fill: rgb(57, 149, 31); font-family: Arial; font-size: 200px; white-space: pre;" transform="matrix(0.7185879945755005, 0, 0, 0.644118070602417, 518.978759765625, 231.58871459960938)" x="541.39" y="240.449">y</text>
  <text style="fill: rgb(201, 0, 177); font-family: Arial; font-size: 200px; white-space: pre;" transform="matrix(0.7185879945755005, 0, 0, 0.644118070602417, 538.1004638671875, 256.6860046386719)" x="451.629" y="212.72">z</text>
  <path d="M 632.531 362.665 C 632.595 351.601 632.653 340.551 632.717 329.516 C 632.717 328.78 633.218 328.159 633.913 328.019 C 637.768 327.183 643.84 327.393 647.962 329.04 C 650.87 330.132 653.411 332.064 655.303 334.608 C 657.253 332.185 659.786 330.347 662.644 329.281 C 666.54 327.734 672.449 327.358 676.684 328.019 C 677.406 328.124 677.948 328.76 677.953 329.521 L 677.953 362.805 C 677.953 363.652 677.284 364.338 676.472 364.332 C 676.359 364.327 676.242 364.317 676.133 364.287 C 672.517 363.802 668.838 364.157 665.37 365.334 C 662.815 366.33 660.382 367.657 658.138 369.284 C 661.294 368.263 664.585 367.762 667.885 367.797 C 672.12 367.867 676.336 368.428 680.458 369.459 L 680.458 334.633 L 681.93 334.633 C 682.743 334.633 683.406 335.319 683.406 336.165 L 683.406 371.467 C 683.406 372.313 682.743 373.004 681.93 373.004 C 681.776 373.004 681.623 372.974 681.469 372.924 C 677.032 371.652 672.463 370.956 667.858 370.856 C 663.795 370.801 659.763 371.657 656.043 373.365 C 655.533 373.7 654.883 373.7 654.373 373.365 C 650.653 371.657 646.621 370.801 642.554 370.856 C 637.962 370.961 633.403 371.662 628.974 372.934 C 628.825 372.984 628.671 373.014 628.518 373.014 C 627.692 373.019 627.024 372.323 627.028 371.467 L 627.028 336.165 C 627.028 335.319 627.687 334.633 628.5 334.633 L 629.976 334.633 L 629.976 369.459 C 634.093 368.428 638.31 367.867 642.549 367.797 C 646.089 367.752 649.61 368.333 652.969 369.504 C 650.847 367.717 648.432 366.355 645.84 365.474 C 642.631 364.373 637.728 364.007 634.148 364.327 C 633.331 364.408 632.604 363.777 632.531 362.926 C 632.531 362.841 632.531 362.75 632.531 362.665 Z M 660.815 358.314 C 660.161 358.815 659.231 358.4 659.136 357.558 C 659.086 357.118 659.294 356.687 659.669 356.472 C 661.357 355.381 663.181 354.509 665.077 353.889 C 667.009 353.213 669.014 352.782 671.045 352.617 C 671.853 352.572 672.409 353.453 672.043 354.204 C 671.871 354.554 671.533 354.78 671.158 354.805 C 669.316 354.965 667.501 355.361 665.75 355.981 C 664.016 356.537 662.359 357.318 660.815 358.314 Z M 660.906 349.823 C 660.224 350.279 659.325 349.788 659.294 348.947 C 659.276 348.556 659.461 348.186 659.777 347.976 C 661.465 346.904 663.276 346.058 665.163 345.442 C 667.063 344.786 669.032 344.361 671.027 344.191 C 671.84 344.176 672.359 345.087 671.966 345.823 C 671.799 346.143 671.488 346.348 671.14 346.384 C 669.325 346.544 667.533 346.929 665.804 347.535 C 664.088 348.086 662.445 348.857 660.906 349.823 Z M 660.933 341.367 C 660.246 341.822 659.348 341.327 659.316 340.481 C 659.298 340.09 659.483 339.72 659.804 339.509 C 661.492 338.448 663.294 337.602 665.181 336.991 C 667.072 336.335 669.036 335.915 671.027 335.749 C 671.835 335.704 672.391 336.585 672.02 337.341 C 671.853 337.687 671.515 337.917 671.14 337.937 C 669.334 338.092 667.547 338.478 665.822 339.079 C 664.111 339.635 662.468 340.401 660.933 341.367 Z M 650.766 356.472 C 651.475 356.883 651.488 357.944 650.788 358.375 C 650.423 358.6 649.962 358.575 649.619 358.314 C 648.08 357.323 646.432 356.537 644.703 355.981 C 642.951 355.361 641.136 354.965 639.29 354.805 C 638.486 354.755 638.03 353.808 638.477 353.108 C 638.685 352.782 639.041 352.592 639.416 352.617 C 641.448 352.782 643.452 353.213 645.38 353.889 C 647.281 354.509 649.1 355.381 650.793 356.472 L 650.766 356.472 Z M 650.657 347.976 C 651.339 348.436 651.29 349.493 650.567 349.883 C 650.229 350.058 649.827 350.038 649.511 349.823 C 647.971 348.857 646.328 348.086 644.608 347.535 C 642.883 346.929 641.091 346.544 639.272 346.384 C 638.464 346.328 638.017 345.377 638.468 344.676 C 638.68 344.351 639.041 344.166 639.416 344.191 C 641.412 344.361 643.38 344.786 645.281 345.442 C 647.168 346.058 648.978 346.904 650.666 347.976 L 650.657 347.976 Z M 650.63 339.509 C 651.339 339.915 651.362 340.976 650.671 341.412 C 650.31 341.642 649.854 341.622 649.511 341.367 C 647.976 340.401 646.333 339.635 644.621 339.079 C 642.897 338.478 641.109 338.092 639.303 337.937 C 638.495 337.892 638.035 336.951 638.477 336.245 C 638.685 335.92 639.041 335.729 639.416 335.749 C 641.407 335.915 643.371 336.335 645.263 336.991 C 647.145 337.602 648.951 338.448 650.639 339.509 L 650.63 339.509 Z M 675 330.883 C 671.596 330.552 666.711 330.943 663.655 332.15 C 660.811 333.191 658.368 335.174 656.712 337.792 L 656.712 366.586 C 659.095 364.883 661.673 363.496 664.386 362.45 C 667.813 361.308 671.411 360.843 675 361.078 L 675 330.883 Z M 653.768 366.29 L 653.768 337.752 C 652.224 334.918 649.736 333.026 646.915 331.904 C 643.705 330.628 638.775 330.342 635.651 330.803 L 635.484 361.173 C 638.892 361.048 643.601 361.499 646.734 362.56 C 649.249 363.416 651.624 364.668 653.768 366.29 Z" style="fill: rgb(206, 206, 206); transform-origin: 655.217px 350.578px;" transform="matrix(0.920505106449, -0.390732049942, 0.390732049942, 0.920505106449, 0.000052144839, -0.000038603103)"/>
</svg>