<?xml version="1.0" encoding="utf-8"?>
<svg xmlns="http://www.w3.org/2000/svg" viewBox="444.329 120.5913 128.513 144.4233" width="128.513px" height="144.423px">  
  <text style="fill: rgb(0, 144, 255); font-family: Arial; font-size: 200px; white-space: pre;" transform="matrix(0.7185879945755005, 0, 0, 0.644118070602417, 419.6051330566406, 75.10797119140626)" x="46.056" y="252.333">Q</text>
  <path d="M 484.158 202.001 C 484.222 190.937 484.28 179.887 484.344 168.852 C 484.344 168.116 484.845 167.495 485.54 167.355 C 489.395 166.519 495.467 166.729 499.589 168.376 C 502.497 169.468 505.038 171.4 506.93 173.944 C 508.88 171.521 511.413 169.683 514.271 168.617 C 518.167 167.07 524.076 166.694 528.311 167.355 C 529.033 167.46 529.575 168.096 529.58 168.857 L 529.58 202.141 C 529.58 202.988 528.911 203.674 528.099 203.668 C 527.986 203.663 527.869 203.653 527.76 203.623 C 524.144 203.138 520.465 203.493 516.997 204.67 C 514.442 205.666 512.009 206.993 509.765 208.62 C 512.921 207.599 516.212 207.098 519.512 207.133 C 523.747 207.203 527.963 207.764 532.085 208.795 L 532.085 173.969 L 533.557 173.969 C 534.37 173.969 535.033 174.655 535.033 175.501 L 535.033 210.803 C 535.033 211.649 534.37 212.34 533.557 212.34 C 533.403 212.34 533.25 212.31 533.096 212.26 C 528.659 210.988 524.09 210.292 519.485 210.192 C 515.422 210.137 511.39 210.993 507.67 212.701 C 507.16 213.036 506.51 213.036 506 212.701 C 502.28 210.993 498.248 210.137 494.181 210.192 C 489.589 210.297 485.03 210.998 480.601 212.27 C 480.452 212.32 480.298 212.35 480.145 212.35 C 479.319 212.355 478.651 211.659 478.655 210.803 L 478.655 175.501 C 478.655 174.655 479.314 173.969 480.127 173.969 L 481.603 173.969 L 481.603 208.795 C 485.72 207.764 489.937 207.203 494.176 207.133 C 497.716 207.088 501.237 207.669 504.596 208.84 C 502.474 207.053 500.059 205.691 497.467 204.81 C 494.258 203.709 489.355 203.343 485.775 203.663 C 484.958 203.744 484.231 203.113 484.158 202.262 C 484.158 202.177 484.158 202.086 484.158 202.001 Z M 512.442 197.65 C 511.788 198.151 510.858 197.736 510.763 196.894 C 510.713 196.454 510.921 196.023 511.296 195.808 C 512.984 194.717 514.808 193.845 516.704 193.225 C 518.636 192.549 520.641 192.118 522.672 191.953 C 523.48 191.908 524.036 192.789 523.67 193.54 C 523.498 193.89 523.16 194.116 522.785 194.141 C 520.943 194.301 519.128 194.697 517.377 195.317 C 515.643 195.873 513.986 196.654 512.442 197.65 Z M 512.533 189.159 C 511.851 189.615 510.952 189.124 510.921 188.283 C 510.903 187.892 511.088 187.522 511.404 187.312 C 513.092 186.24 514.903 185.394 516.79 184.778 C 518.69 184.122 520.659 183.697 522.654 183.527 C 523.467 183.512 523.986 184.423 523.593 185.159 C 523.426 185.479 523.115 185.684 522.767 185.72 C 520.952 185.88 519.16 186.265 517.431 186.871 C 515.715 187.422 514.072 188.193 512.533 189.159 Z M 512.56 180.703 C 511.873 181.158 510.975 180.663 510.943 179.817 C 510.925 179.426 511.11 179.056 511.431 178.845 C 513.119 177.784 514.921 176.938 516.808 176.327 C 518.699 175.671 520.663 175.251 522.654 175.085 C 523.462 175.04 524.018 175.921 523.647 176.677 C 523.48 177.023 523.142 177.253 522.767 177.273 C 520.961 177.428 519.174 177.814 517.449 178.415 C 515.738 178.971 514.095 179.737 512.56 180.703 Z M 502.393 195.808 C 503.102 196.219 503.115 197.28 502.415 197.711 C 502.05 197.936 501.589 197.911 501.246 197.65 C 499.707 196.659 498.059 195.873 496.33 195.317 C 494.578 194.697 492.763 194.301 490.917 194.141 C 490.113 194.091 489.657 193.144 490.104 192.444 C 490.312 192.118 490.668 191.928 491.043 191.953 C 493.075 192.118 495.079 192.549 497.007 193.225 C 498.908 193.845 500.727 194.717 502.42 195.808 L 502.393 195.808 Z M 502.284 187.312 C 502.966 187.772 502.917 188.829 502.194 189.219 C 501.856 189.394 501.454 189.374 501.138 189.159 C 499.598 188.193 497.955 187.422 496.235 186.871 C 494.51 186.265 492.718 185.88 490.899 185.72 C 490.091 185.664 489.644 184.713 490.095 184.012 C 490.307 183.687 490.668 183.502 491.043 183.527 C 493.039 183.697 495.007 184.122 496.908 184.778 C 498.795 185.394 500.605 186.24 502.293 187.312 L 502.284 187.312 Z M 502.257 178.845 C 502.966 179.251 502.989 180.312 502.298 180.748 C 501.937 180.978 501.481 180.958 501.138 180.703 C 499.603 179.737 497.96 178.971 496.248 178.415 C 494.524 177.814 492.736 177.428 490.93 177.273 C 490.122 177.228 489.662 176.287 490.104 175.581 C 490.312 175.256 490.668 175.065 491.043 175.085 C 493.034 175.251 494.998 175.671 496.89 176.327 C 498.772 176.938 500.578 177.784 502.266 178.845 L 502.257 178.845 Z M 526.627 170.219 C 523.223 169.888 518.338 170.279 515.282 171.486 C 512.438 172.527 509.995 174.51 508.339 177.128 L 508.339 205.922 C 510.722 204.219 513.3 202.832 516.013 201.786 C 519.44 200.644 523.038 200.179 526.627 200.414 L 526.627 170.219 Z M 505.395 205.626 L 505.395 177.088 C 503.851 174.254 501.363 172.362 498.542 171.24 C 495.332 169.964 490.402 169.678 487.278 170.139 L 487.111 200.509 C 490.519 200.384 495.228 200.835 498.361 201.896 C 500.876 202.752 503.251 204.004 505.395 205.626 Z" style="fill: rgb(0, 0, 0); transform-origin: 506.844px 189.914px;" transform="matrix(0.920505106449, -0.390732049942, 0.390732049942, 0.920505106449, 0.000033778146, 0.000017112277)"/>
</svg>